<svg version="1.1" id="Layer_1" xmlns="http://www.w3.org/2000/svg" xmlns:xlink="http://www.w3.org/1999/xlink" x="0px" y="0px"
	 width="100%" viewBox="0 0 280 272" enable-background="new 0 0 280 272" xml:space="preserve">
<path fill="#FFFFFE" opacity="1.000000" stroke="none" 
	d="
M281.000000,99.000000 
	C281.000000,157.333328 281.000000,215.166672 281.000000,273.000000 
	C187.666672,273.000000 94.333336,273.000000 1.000000,273.000000 
	C1.000000,182.333328 1.000000,91.666664 1.000000,1.000000 
	C94.333336,1.000000 187.666672,1.000000 281.000000,1.000000 
	C281.000000,33.500000 281.000000,66.000000 281.000000,99.000000 
M112.220490,26.716022 
	C77.842720,60.195793 43.455517,93.665886 9.094750,127.163101 
	C1.784464,134.289658 1.750976,140.753815 8.969666,147.780228 
	C49.803802,187.526642 90.651512,227.259109 131.513199,266.977203 
	C137.911545,273.196442 144.284393,273.162994 150.736328,266.897858 
	C191.382645,227.428406 232.018936,187.948608 272.639099,148.452271 
	C280.856689,140.462051 280.804260,134.512512 272.464203,126.402725 
	C231.854980,86.914688 191.231461,47.441330 150.600311,7.975863 
	C144.300766,1.857040 137.989456,1.799068 131.750885,7.784727 
	C125.378571,13.898707 119.060463,20.069180 112.220490,26.716022 
z"/>
<path fill="#F3D025" opacity="1.000000" stroke="none" 
	d="
M112.469559,26.465469 
	C119.060463,20.069180 125.378571,13.898707 131.750885,7.784727 
	C137.989456,1.799068 144.300766,1.857040 150.600311,7.975863 
	C191.231461,47.441330 231.854980,86.914688 272.464203,126.402725 
	C280.804260,134.512512 280.856689,140.462051 272.639099,148.452271 
	C232.018936,187.948608 191.382645,227.428406 150.736328,266.897858 
	C144.284393,273.162994 137.911545,273.196442 131.513199,266.977203 
	C90.651512,227.259109 49.803802,187.526642 8.969666,147.780228 
	C1.750976,140.753815 1.784464,134.289658 9.094750,127.163101 
	C43.455517,93.665886 77.842720,60.195793 112.469559,26.465469 
M66.385460,78.885223 
	C48.904922,96.249725 31.427122,113.616989 13.942225,130.977112 
	C8.417229,136.462662 8.429116,138.975296 14.151287,144.620178 
	C53.989796,183.920593 93.834946,223.214294 133.680649,262.507416 
	C140.009399,268.748413 142.242889,268.741516 148.586456,262.487213 
	C188.430527,223.203979 228.274338,183.920456 268.115631,144.634384 
	C273.844696,138.985168 273.857941,136.184097 268.121643,130.519409 
	C228.073776,90.971565 188.020844,51.428871 147.960785,11.893377 
	C142.534546,6.538192 139.679092,6.580974 134.110855,12.072313 
	C111.699707,34.173927 89.299599,56.286728 66.385460,78.885223 
z"/>
<path fill="#0E0B04" opacity="1.000000" stroke="none" 
	d="
M66.640434,78.640312 
	C89.299599,56.286728 111.699707,34.173927 134.110855,12.072313 
	C139.679092,6.580974 142.534546,6.538192 147.960785,11.893377 
	C188.020844,51.428871 228.073776,90.971565 268.121643,130.519409 
	C273.857941,136.184097 273.844696,138.985168 268.115631,144.634384 
	C228.274338,183.920456 188.430527,223.203979 148.586456,262.487213 
	C142.242889,268.741516 140.009399,268.748413 133.680649,262.507416 
	C93.834946,223.214294 53.989796,183.920593 14.151287,144.620178 
	C8.429116,138.975296 8.417229,136.462662 13.942225,130.977112 
	C31.427122,113.616989 48.904922,96.249725 66.640434,78.640312 
M141.383072,13.661053 
	C139.814545,14.817729 138.076126,15.802020 136.702240,17.156179 
	C97.438408,55.856499 58.209732,94.592491 18.984623,133.332077 
	C17.712900,134.588058 16.538359,135.942444 15.159615,137.421417 
	C16.290956,138.725067 17.084145,139.772400 18.009359,140.686020 
	C57.482586,179.664169 96.960594,218.637497 136.460403,257.588715 
	C141.102219,262.166046 141.174438,262.119110 146.039734,257.326447 
	C182.342392,221.565704 218.637482,185.797272 254.941147,150.037537 
	C259.043182,145.996964 263.183960,141.995743 267.494843,137.792953 
	C265.640320,135.850403 264.419922,134.507141 263.131439,133.232742 
	C253.182175,123.392281 243.230225,113.554482 233.259415,103.735847 
	C202.872986,73.813202 172.477722,43.899544 141.383072,13.661053 
z"/>
<path fill="#F8D21C" opacity="1.000000" stroke="none" 
	d="
M141.734482,13.821718 
	C172.477722,43.899544 202.872986,73.813202 233.259415,103.735847 
	C243.230225,113.554482 253.182175,123.392281 263.131439,133.232742 
	C264.419922,134.507141 265.640320,135.850403 267.494843,137.792953 
	C263.183960,141.995743 259.043182,145.996964 254.941147,150.037537 
	C218.637482,185.797272 182.342392,221.565704 146.039734,257.326447 
	C141.174438,262.119110 141.102219,262.166046 136.460403,257.588715 
	C96.960594,218.637497 57.482586,179.664169 18.009359,140.686020 
	C17.084145,139.772400 16.290956,138.725067 15.159615,137.421417 
	C16.538359,135.942444 17.712900,134.588058 18.984623,133.332077 
	C58.209732,94.592491 97.438408,55.856499 136.702240,17.156179 
	C138.076126,15.802020 139.814545,14.817729 141.734482,13.821718 
M121.301819,184.728653 
	C125.091545,182.165482 126.095657,178.696426 126.052322,174.100800 
	C125.812096,148.625671 125.956345,123.147072 125.895370,97.669838 
	C125.891235,95.943306 125.892319,93.590729 124.861435,92.592163 
	C116.923332,84.902893 108.730774,77.476280 99.902939,69.307274 
	C94.323540,75.523743 89.153320,81.284325 83.822594,87.223732 
	C88.246254,91.327263 92.907104,95.840271 97.789230,100.099640 
	C100.226036,102.225601 101.277863,104.462418 101.249565,107.796104 
	C101.084206,127.277405 101.279396,146.762253 101.029961,166.241745 
	C100.998779,168.676514 99.546059,171.491745 97.918739,173.431717 
	C93.274048,178.968796 88.199509,184.145294 83.128769,189.642883 
	C88.350899,194.496658 94.009712,199.756332 99.814758,205.151901 
	C107.030518,198.279846 113.894447,191.742859 121.301819,184.728653 
M191.999603,77.499420 
	C189.375992,75.016266 186.752380,72.533104 183.954910,69.885406 
	C175.837723,77.399345 167.983231,84.556404 160.314209,91.906960 
	C159.307007,92.872330 158.820602,94.826820 158.815430,96.325676 
	C158.722382,123.285828 158.724655,150.246399 158.780716,177.206726 
	C158.783600,178.601303 158.998657,180.453339 159.877197,181.316849 
	C168.011444,189.311874 176.313354,197.136276 184.731995,205.168060 
	C190.782043,199.503601 196.462769,194.184952 202.359055,188.664459 
	C196.685699,183.258728 191.155823,178.234238 185.963181,172.882553 
	C184.535538,171.411179 183.368500,168.968964 183.349289,166.960144 
	C183.158432,146.991241 183.145859,127.018867 183.361664,107.050484 
	C183.384674,104.922363 184.711304,102.355240 186.243805,100.780823 
	C190.985703,95.909241 196.119431,91.419044 201.130386,86.753448 
	C198.070801,83.653305 195.283157,80.828705 191.999603,77.499420 
z"/>
<path fill="#040301" opacity="1.000000" stroke="none" 
	d="
M121.030098,184.967255 
	C113.894447,191.742859 107.030518,198.279846 99.814758,205.151901 
	C94.009712,199.756332 88.350899,194.496658 83.128769,189.642883 
	C88.199509,184.145294 93.274048,178.968796 97.918739,173.431717 
	C99.546059,171.491745 100.998779,168.676514 101.029961,166.241745 
	C101.279396,146.762253 101.084206,127.277405 101.249565,107.796104 
	C101.277863,104.462418 100.226036,102.225601 97.789230,100.099640 
	C92.907104,95.840271 88.246254,91.327263 83.822594,87.223732 
	C89.153320,81.284325 94.323540,75.523743 99.902939,69.307274 
	C108.730774,77.476280 116.923332,84.902893 124.861435,92.592163 
	C125.892319,93.590729 125.891235,95.943306 125.895370,97.669838 
	C125.956345,123.147072 125.812096,148.625671 126.052322,174.100800 
	C126.095657,178.696426 125.091545,182.165482 121.030098,184.967255 
z"/>
<path fill="#020201" opacity="1.000000" stroke="none" 
	d="
M192.247559,77.751770 
	C195.283157,80.828705 198.070801,83.653305 201.130386,86.753448 
	C196.119431,91.419044 190.985703,95.909241 186.243805,100.780823 
	C184.711304,102.355240 183.384674,104.922363 183.361664,107.050484 
	C183.145859,127.018867 183.158432,146.991241 183.349289,166.960144 
	C183.368500,168.968964 184.535538,171.411179 185.963181,172.882553 
	C191.155823,178.234238 196.685699,183.258728 202.359055,188.664459 
	C196.462769,194.184952 190.782043,199.503601 184.731995,205.168060 
	C176.313354,197.136276 168.011444,189.311874 159.877197,181.316849 
	C158.998657,180.453339 158.783600,178.601303 158.780716,177.206726 
	C158.724655,150.246399 158.722382,123.285828 158.815430,96.325676 
	C158.820602,94.826820 159.307007,92.872330 160.314209,91.906960 
	C167.983231,84.556404 175.837723,77.399345 183.954910,69.885406 
	C186.752380,72.533104 189.375992,75.016266 192.247559,77.751770 
z"/>
</svg>